<svg xmlns="http://www.w3.org/2000/svg" viewBox="0 0 1200 700">
  <defs>
    <linearGradient id="bg3" x1="0" y1="0" x2="1" y2="1">
      <stop offset="0%" stop-color="#0b2c6b"/>
      <stop offset="100%" stop-color="#1e40af"/>
    </linearGradient>
  </defs>
  <rect width="1200" height="700" fill="url(#bg3)"/>
  <rect x="100" y="76" width="1000" height="548" rx="28" fill="#ffffff"/>
  <rect x="150" y="126" width="380" height="448" rx="16" fill="#f1f5f9"/>
  <rect x="560" y="126" width="490" height="140" rx="16" fill="#dbeafe"/>
  <rect x="560" y="286" width="490" height="288" rx="16" fill="#eff6ff"/>
  <g fill="#1d4ed8">
    <rect x="180" y="170" width="320" height="22" rx="7"/>
    <rect x="180" y="208" width="320" height="22" rx="7"/>
    <rect x="180" y="246" width="320" height="22" rx="7"/>
    <rect x="180" y="284" width="320" height="22" rx="7"/>
    <rect x="180" y="322" width="320" height="22" rx="7"/>
    <rect x="180" y="360" width="320" height="22" rx="7"/>
    <rect x="180" y="398" width="320" height="22" rx="7"/>
    <rect x="180" y="436" width="320" height="22" rx="7"/>
  </g>
  <g>
    <rect x="590" y="156" width="430" height="24" rx="8" fill="#1d4ed8"/>
    <rect x="590" y="196" width="220" height="24" rx="8" fill="#2563eb"/>
  </g>
  <g fill="#0f172a">
    <rect x="600" y="318" width="200" height="18" rx="6"/>
    <rect x="600" y="352" width="390" height="18" rx="6"/>
    <rect x="600" y="386" width="390" height="18" rx="6"/>
    <rect x="600" y="420" width="390" height="18" rx="6"/>
    <rect x="600" y="454" width="300" height="18" rx="6"/>
  </g>
  <circle cx="965" cy="508" r="54" fill="#16a34a"/>
  <path d="M939 510l18 18 34-38" fill="none" stroke="#fff" stroke-width="13" stroke-linecap="round" stroke-linejoin="round"/>
  <text x="600" y="667" text-anchor="middle" font-family="Assistant, Arial" font-size="38" fill="#ffffff">аЩФХЬ РиХаХк ЧйЮЬ вЭ кЩвХУ УЩТЩШЬЩ ЮЬР</text>
</svg>
