<svg xmlns="http://www.w3.org/2000/svg" viewBox="0 0 1200 700">
  <defs>
    <linearGradient id="bg2" x1="0" y1="0" x2="1" y2="1">
      <stop offset="0%" stop-color="#1e293b"/>
      <stop offset="100%" stop-color="#0f172a"/>
    </linearGradient>
  </defs>
  <rect width="1200" height="700" fill="url(#bg2)"/>
  <rect x="90" y="70" width="1020" height="560" rx="30" fill="#f8fafc"/>
  <rect x="150" y="130" width="560" height="440" rx="20" fill="#dbeafe"/>
  <rect x="740" y="130" width="300" height="200" rx="18" fill="#e2e8f0"/>
  <rect x="740" y="360" width="300" height="210" rx="18" fill="#e2e8f0"/>
  <g>
    <rect x="180" y="170" width="500" height="34" rx="10" fill="#1d4ed8"/>
    <rect x="180" y="224" width="500" height="34" rx="10" fill="#1d4ed8"/>
    <rect x="180" y="278" width="500" height="34" rx="10" fill="#1d4ed8"/>
    <rect x="180" y="332" width="500" height="34" rx="10" fill="#1d4ed8"/>
    <rect x="180" y="386" width="500" height="34" rx="10" fill="#1d4ed8"/>
    <rect x="180" y="440" width="500" height="34" rx="10" fill="#1d4ed8"/>
    <rect x="180" y="494" width="500" height="34" rx="10" fill="#1d4ed8"/>
  </g>
  <circle cx="890" cy="230" r="62" fill="#16a34a"/>
  <path d="M860 232l22 22 48-52" fill="none" stroke="#fff" stroke-width="16" stroke-linecap="round" stroke-linejoin="round"/>
  <text x="890" y="430" text-anchor="middle" font-family="Assistant, Arial" font-size="42" fill="#0f172a">QA</text>
  <text x="890" y="485" text-anchor="middle" font-family="Assistant, Arial" font-size="28" fill="#334155">СУЩзХк кзЩаХк</text>
  <text x="600" y="666" text-anchor="middle" font-family="Assistant, Arial" font-size="38" fill="#ffffff">СзиФ ХСШЩЧХк ЬдЩ аФЬЩ вСХУФ ЮзжХвЩЩЭ</text>
</svg>
