<svg xmlns="http://www.w3.org/2000/svg" viewBox="0 0 1200 700">
  <defs>
    <linearGradient id="bg1" x1="0" y1="0" x2="1" y2="1">
      <stop offset="0%" stop-color="#0b2c6b"/>
      <stop offset="100%" stop-color="#1d4ed8"/>
    </linearGradient>
  </defs>
  <rect width="1200" height="700" fill="url(#bg1)"/>
  <rect x="120" y="80" width="960" height="540" rx="26" fill="#f8fafc"/>
  <rect x="160" y="120" width="420" height="460" rx="16" fill="#e2e8f0"/>
  <rect x="620" y="120" width="420" height="460" rx="16" fill="#e2e8f0"/>
  <g fill="#1d4ed8">
    <rect x="190" y="160" width="360" height="26" rx="8"/>
    <rect x="190" y="210" width="360" height="26" rx="8"/>
    <rect x="190" y="260" width="360" height="26" rx="8"/>
    <rect x="190" y="310" width="360" height="26" rx="8"/>
    <rect x="190" y="360" width="360" height="26" rx="8"/>
    <rect x="190" y="410" width="360" height="26" rx="8"/>
    <rect x="190" y="460" width="360" height="26" rx="8"/>
    <rect x="650" y="160" width="360" height="26" rx="8"/>
    <rect x="650" y="210" width="360" height="26" rx="8"/>
    <rect x="650" y="260" width="360" height="26" rx="8"/>
    <rect x="650" y="310" width="360" height="26" rx="8"/>
    <rect x="650" y="360" width="360" height="26" rx="8"/>
    <rect x="650" y="410" width="360" height="26" rx="8"/>
    <rect x="650" y="460" width="360" height="26" rx="8"/>
  </g>
  <text x="600" y="665" text-anchor="middle" font-family="Assistant, Arial" font-size="38" fill="#ffffff">РиХЯ ЧйЮЬ квйЩЩкЩ - СУЩзФ ХкЩвХУ</text>
</svg>
